<svg class="notification-bell-icon-img" data-name="Layer 1" xmlns="http://www.w3.org/2000/svg" viewBox="0 0 178 178"><circle class="icon-background" cx="89" cy="89" r="89"/><path class="icon-foreground" d="M141.7,119.22c-14.23,0-19-12.94-21.48-30.78C117.39,68.28,122.11,37.22,89,37.22S60.61,68.28,57.78,88.44c-2.51,17.84-7.25,30.78-21.48,30.78-1.06,0-1.15,6.28-.16,6.28H141.86C142.85,125.5,142.76,119.22,141.7,119.22Z"/><path class="icon-foreground" d="M76.6,135.56a12.47,12.47,0,0,0-.21,2.22,12.61,12.61,0,0,0,25.22,0,12.47,12.47,0,0,0-.21-2.22Z"/><circle class="icon-foreground" cx="89" cy="35.38" r="8.8"/></svg>